<svg version="1.1" id="Layer_1" xmlns="http://www.w3.org/2000/svg" xmlns:xlink="http://www.w3.org/1999/xlink" x="0px" y="0px"
	 width="100%" viewBox="0 0 500 500" enable-background="new 0 0 500 500" xml:space="preserve">
<path fill="#000000" opacity="1.000000" stroke="none" 
	d="
M345.000000,501.000000 
	C230.000031,501.000000 115.500053,501.000000 1.000062,501.000000 
	C1.000041,334.333405 1.000041,167.666794 1.000021,1.000151 
	C167.666550,1.000101 334.333099,1.000101 500.999756,1.000050 
	C500.999817,167.666519 500.999817,334.333038 500.999908,500.999786 
	C449.166656,501.000000 397.333344,501.000000 345.000000,501.000000 
M281.625183,32.247795 
	C261.532166,32.168526 241.439178,32.082069 221.346085,32.050789 
	C220.835831,32.049992 220.324615,32.655949 219.206223,33.369350 
	C213.263138,50.964001 207.362061,68.572983 201.367661,86.150139 
	C190.954590,116.684006 180.490677,147.200546 170.034500,177.719711 
	C164.536041,193.768463 158.935013,209.782501 153.513718,225.857193 
	C147.111893,244.839249 140.936066,263.897644 134.510498,282.871552 
	C128.379929,300.974365 122.003876,318.993866 115.827286,337.081299 
	C108.353722,358.966675 100.941719,380.873322 93.575829,402.795166 
	C90.927055,410.678223 86.938232,418.508789 86.295776,426.580933 
	C85.150307,440.973145 86.085258,455.530914 86.468613,470.819397 
	C86.964409,470.874054 87.460190,470.976593 87.955994,470.976654 
	C196.442734,470.988922 304.929474,470.997040 413.416229,470.958435 
	C414.562653,470.958038 415.708923,470.341675 416.984528,469.081787 
	C416.995941,455.582733 417.024719,442.083618 416.990417,428.584656 
	C416.987183,427.309509 416.746582,425.983337 416.348663,424.768463 
	C409.599487,404.161499 402.954041,383.518860 395.983032,362.986816 
	C389.503387,343.902069 382.525330,324.986725 376.023499,305.909271 
	C368.139984,282.777802 360.625519,259.520691 352.768250,236.380127 
	C344.291351,211.414642 335.589417,186.525604 327.011505,161.594330 
	C321.698242,146.151657 316.418091,130.697525 311.149902,115.239410 
	C303.747314,93.518509 296.433594,71.767029 288.938629,50.078110 
	C286.935822,44.282314 284.411804,38.666634 281.625183,32.247795 
z"/>
<path fill="#4D64B6" opacity="1.000000" stroke="none" 
	d="
M86.150238,470.019470 
	C86.085258,455.530914 85.150307,440.973145 86.295776,426.580933 
	C86.938232,418.508789 90.927055,410.678223 93.575829,402.795166 
	C100.941719,380.873322 108.353722,358.966675 115.827286,337.081299 
	C122.003876,318.993866 128.379929,300.974365 134.510498,282.871552 
	C140.936066,263.897644 147.111893,244.839249 153.513718,225.857193 
	C158.935013,209.782501 164.536041,193.768463 170.034500,177.719711 
	C180.490677,147.200546 190.954590,116.684006 201.367661,86.150139 
	C207.362061,68.572983 213.263138,50.964001 219.990891,33.201340 
	C241.226059,33.011646 261.676544,32.989960 282.127075,32.968269 
	C284.411804,38.666634 286.935822,44.282314 288.938629,50.078110 
	C296.433594,71.767029 303.747314,93.518509 311.149902,115.239410 
	C316.418091,130.697525 321.698242,146.151657 327.011505,161.594330 
	C335.589417,186.525604 344.291351,211.414642 352.768250,236.380127 
	C360.625519,259.520691 368.139984,282.777802 376.023499,305.909271 
	C382.525330,324.986725 389.503387,343.902069 395.983032,362.986816 
	C402.954041,383.518860 409.599487,404.161499 416.348663,424.768463 
	C416.746582,425.983337 416.987183,427.309509 416.990417,428.584656 
	C417.024719,442.083618 416.995941,455.582733 416.460876,469.545074 
	C306.008240,470.012054 196.079239,470.015778 86.150238,470.019470 
M161.727692,403.647308 
	C162.540176,403.774384 163.352722,404.012695 164.165161,404.012329 
	C187.880676,404.001251 211.596207,403.966400 236.081070,404.066345 
	C240.246567,406.069580 244.160446,405.445831 248.490173,403.510437 
	C251.613937,403.662720 254.737686,403.815033 257.888306,404.697388 
	C256.509979,409.117767 259.914642,407.830536 261.844788,407.833069 
	C300.139954,407.883575 338.435211,407.874146 376.730469,407.855652 
	C378.133362,407.854950 379.536133,407.638641 381.851501,407.447479 
	C366.998840,379.491211 352.502594,352.205872 337.852539,324.184143 
	C332.616058,308.767639 327.391724,293.346985 322.140503,277.935486 
	C312.378845,249.286469 302.586700,220.647797 292.835876,191.995102 
	C286.414825,173.126968 279.893646,154.290482 273.751801,135.331451 
	C272.132965,130.334335 270.376068,127.283981 264.280121,127.889191 
	C257.849304,128.527634 251.305954,128.032349 244.811752,128.032349 
	C232.129868,128.032364 232.005905,127.989510 227.884155,139.917679 
	C219.085968,165.379227 210.429504,190.889740 200.831924,216.584991 
	C194.680115,216.589874 188.524536,216.730911 182.377579,216.560760 
	C176.427567,216.396072 172.034286,218.946869 169.154221,223.911118 
	C162.815781,234.836349 156.475891,245.770004 150.528839,256.909607 
	C146.909943,263.688324 149.151917,270.494324 155.541931,274.518951 
	C159.902039,277.265076 164.065948,280.407501 168.662888,282.671600 
	C174.545303,285.568848 177.994644,289.105957 174.517914,296.500366 
	C167.777435,315.935455 161.234253,335.442047 154.228592,354.781067 
	C149.389389,368.139618 145.603287,381.478180 146.813248,395.977325 
	C147.524231,404.496979 146.935562,404.546051 155.428528,403.713165 
	C155.593918,403.696930 155.759781,403.685822 156.513489,403.464569 
	C158.015076,403.386841 159.516663,403.309113 161.727692,403.647308 
z"/>
<path fill="#7E8FCB" opacity="1.000000" stroke="none" 
	d="
M86.309425,470.419434 
	C196.079239,470.015778 306.008240,470.012054 416.396240,470.010590 
	C415.708923,470.341675 414.562653,470.958038 413.416229,470.958435 
	C304.929474,470.997040 196.442734,470.988922 87.955994,470.976654 
	C87.460190,470.976593 86.964409,470.874054 86.309425,470.419434 
z"/>
<path fill="#798AC8" opacity="1.000000" stroke="none" 
	d="
M281.876099,32.608032 
	C261.676544,32.989960 241.226059,33.011646 220.294708,33.006134 
	C220.324615,32.655949 220.835831,32.049992 221.346085,32.050789 
	C241.439178,32.082069 261.532166,32.168526 281.876099,32.608032 
z"/>
<path fill="#020203" opacity="1.000000" stroke="none" 
	d="
M338.006378,324.920532 
	C352.502594,352.205872 366.998840,379.491211 381.851501,407.447479 
	C379.536133,407.638641 378.133362,407.854950 376.730469,407.855652 
	C338.435211,407.874146 300.139954,407.883575 261.844788,407.833069 
	C259.914642,407.830536 256.509979,409.117767 258.029724,403.989929 
	C262.656311,387.025482 270.451324,374.298370 289.230530,371.863342 
	C293.325531,371.332367 297.075134,368.137268 302.286194,365.513367 
	C291.092529,358.774902 281.308929,352.885254 271.366119,346.731628 
	C264.993896,342.560669 258.780914,338.653748 252.095047,334.449432 
	C252.095047,339.134918 252.095047,343.029877 251.996216,347.389160 
	C251.883301,362.430786 252.136429,377.016541 251.674301,391.579559 
	C251.553055,395.400848 249.214096,399.151733 247.893585,402.934967 
	C244.160446,405.445831 240.246567,406.069580 235.505203,403.702850 
	C231.212021,400.346466 230.352249,396.280792 230.338394,391.763153 
	C230.292572,376.824036 230.137527,361.885223 230.152893,346.504761 
	C230.314407,343.580322 230.580215,341.070587 230.297882,338.624115 
	C230.112503,337.017700 229.586670,334.788635 228.439178,334.063568 
	C221.455948,329.651093 214.250580,325.590118 206.925919,321.156494 
	C198.379654,315.844147 189.775391,311.145142 181.802811,305.546600 
	C178.787476,303.429138 177.230499,299.234863 175.008774,295.987274 
	C177.994644,289.105957 174.545303,285.568848 168.662888,282.671600 
	C164.065948,280.407501 159.902039,277.265076 155.541931,274.518951 
	C149.151917,270.494324 146.909943,263.688324 150.528839,256.909607 
	C156.475891,245.770004 162.815781,234.836349 169.154221,223.911118 
	C172.034286,218.946869 176.427567,216.396072 182.377579,216.560760 
	C188.524536,216.730911 194.680115,216.589874 201.739441,216.602158 
	C207.622009,216.650238 212.610413,216.924286 217.568771,216.651642 
	C224.031906,216.296234 228.982651,219.071915 232.494629,223.992996 
	C234.731781,227.127747 235.816559,231.084915 237.440414,235.055893 
	C244.396149,263.680389 251.305405,291.928345 258.324982,320.148804 
	C258.730377,321.778595 259.661591,323.767029 260.975433,324.605042 
	C272.877289,332.196838 284.919006,339.569366 297.107117,347.294037 
	C301.160156,350.009521 305.025818,352.437042 309.000366,354.932953 
	C311.515808,351.385834 313.667358,348.251984 315.920868,345.193268 
	C321.957733,336.999451 328.511169,329.353333 338.006378,324.920532 
M182.754486,275.004242 
	C183.509048,274.486145 184.584625,274.140808 184.970276,273.424164 
	C191.263824,261.729797 197.475296,249.991150 203.669083,238.243423 
	C203.839294,237.920578 203.608353,237.386246 203.526566,236.574127 
	C200.276764,236.719864 197.152832,236.859955 193.132599,236.788910 
	C189.720810,237.370255 184.516464,236.762970 183.206696,238.738129 
	C177.452286,247.416199 172.823334,256.840546 167.541779,266.438843 
	C172.632477,269.393677 177.336060,272.123779 182.754486,275.004242 
M220.013504,282.416290 
	C217.876251,286.504608 215.738998,290.592896 213.338867,295.184052 
	C220.821594,299.845123 227.999268,304.316162 235.176941,308.787231 
	C235.617004,308.415497 236.057083,308.043762 236.497147,307.672028 
	C233.348724,295.244019 230.200287,282.816010 226.786331,269.339905 
	C224.292511,274.129272 222.310074,277.936523 220.013504,282.416290 
z"/>
<path fill="#7B92DA" opacity="1.000000" stroke="none" 
	d="
M337.929443,324.552338 
	C328.511169,329.353333 321.957733,336.999451 315.920868,345.193268 
	C313.667358,348.251984 311.515808,351.385834 309.000366,354.932953 
	C305.025818,352.437042 301.160156,350.009521 297.482910,347.170837 
	C299.954834,344.611145 300.838348,335.008148 299.300842,330.985901 
	C296.516571,323.701752 293.740387,316.410187 291.180389,309.045441 
	C284.135193,288.777161 277.138855,268.491333 270.257263,248.167038 
	C267.275818,239.361450 264.623566,230.444397 261.904358,221.242920 
	C262.826752,219.288315 263.809814,217.726074 264.483948,216.040268 
	C270.504059,200.985291 263.304138,186.342087 248.502945,183.442947 
	C241.637054,182.098114 236.450470,184.500931 233.520996,190.383652 
	C227.907654,201.655884 230.382187,217.157547 239.185577,226.222641 
	C238.606293,229.336975 238.012161,232.005157 237.418045,234.673325 
	C235.816559,231.084915 234.731781,227.127747 232.494629,223.992996 
	C228.982651,219.071915 224.031906,216.296234 217.568771,216.651642 
	C212.610413,216.924286 207.622009,216.650238 202.180969,216.499756 
	C210.429504,190.889740 219.085968,165.379227 227.884155,139.917679 
	C232.005905,127.989510 232.129868,128.032364 244.811752,128.032349 
	C251.305954,128.032349 257.849304,128.527634 264.280121,127.889191 
	C270.376068,127.283981 272.132965,130.334335 273.751801,135.331451 
	C279.893646,154.290482 286.414825,173.126968 292.835876,191.995102 
	C302.586700,220.647797 312.378845,249.286469 322.140503,277.935486 
	C327.391724,293.346985 332.616058,308.767639 337.929443,324.552338 
z"/>
<path fill="#7991D8" opacity="1.000000" stroke="none" 
	d="
M230.024414,346.946320 
	C230.137527,361.885223 230.292572,376.824036 230.338394,391.763153 
	C230.352249,396.280792 231.212021,400.346466 235.120529,403.637360 
	C211.596207,403.966400 187.880676,404.001251 164.165161,404.012329 
	C163.352722,404.012695 162.540176,403.774384 161.689880,403.277954 
	C163.920395,400.806183 166.711716,399.049927 168.370483,396.543976 
	C177.737167,382.393402 186.680298,367.961914 196.080231,353.834045 
	C201.171585,346.181854 202.959015,338.081116 201.223221,329.172028 
	C200.696136,326.466797 200.550446,322.686737 198.778168,321.402191 
	C192.013901,316.499603 184.657288,312.414276 176.715225,307.527313 
	C178.062866,316.203491 179.617661,323.711334 180.229187,331.295258 
	C180.500595,334.661072 179.706848,338.697418 177.956009,341.543060 
	C169.151962,355.852386 159.831772,369.843109 150.775375,383.998566 
	C145.817078,391.748535 147.850510,399.262726 155.925430,403.672333 
	C155.759781,403.685822 155.593918,403.696930 155.428528,403.713165 
	C146.935562,404.546051 147.524231,404.496979 146.813248,395.977325 
	C145.603287,381.478180 149.389389,368.139618 154.228592,354.781067 
	C161.234253,335.442047 167.777435,315.935455 174.763336,296.243835 
	C177.230499,299.234863 178.787476,303.429138 181.802811,305.546600 
	C189.775391,311.145142 198.379654,315.844147 206.909515,321.577393 
	C205.061874,328.792664 202.045822,335.038574 202.936722,342.298981 
	C203.347778,345.648926 204.316391,346.986847 207.703430,346.931061 
	C215.141647,346.808502 222.583847,346.926544 230.024414,346.946320 
z"/>
<path fill="#020304" opacity="1.000000" stroke="none" 
	d="
M156.219452,403.568451 
	C147.850510,399.262726 145.817078,391.748535 150.775375,383.998566 
	C159.831772,369.843109 169.151962,355.852386 177.956009,341.543060 
	C179.706848,338.697418 180.500595,334.661072 180.229187,331.295258 
	C179.617661,323.711334 178.062866,316.203491 176.715225,307.527313 
	C184.657288,312.414276 192.013901,316.499603 198.778168,321.402191 
	C200.550446,322.686737 200.696136,326.466797 201.223221,329.172028 
	C202.959015,338.081116 201.171585,346.181854 196.080231,353.834045 
	C186.680298,367.961914 177.737167,382.393402 168.370483,396.543976 
	C166.711716,399.049927 163.920395,400.806183 161.335175,403.070007 
	C159.516663,403.309113 158.015076,403.386841 156.219452,403.568451 
z"/>
<path fill="#7A91D8" opacity="1.000000" stroke="none" 
	d="
M271.525360,346.995636 
	C281.308929,352.885254 291.092529,358.774902 302.286194,365.513367 
	C297.075134,368.137268 293.325531,371.332367 289.230530,371.863342 
	C270.451324,374.298370 262.656311,387.025482 258.016296,403.624908 
	C254.737686,403.815033 251.613937,403.662720 248.191879,403.222717 
	C249.214096,399.151733 251.553055,395.400848 251.674301,391.579559 
	C252.136429,377.016541 251.883301,362.430786 252.458618,347.388000 
	C259.188324,346.946869 265.356842,346.971252 271.525360,346.995636 
z"/>
<path fill="#BCCEF5" opacity="1.000000" stroke="none" 
	d="
M237.440399,235.055893 
	C238.012161,232.005157 238.606293,229.336975 239.561798,226.288330 
	C248.207489,229.445023 255.557343,228.256317 261.821777,221.577972 
	C264.623566,230.444397 267.275818,239.361450 270.257263,248.167038 
	C277.138855,268.491333 284.135193,288.777161 291.180389,309.045441 
	C293.740387,316.410187 296.516571,323.701752 299.300842,330.985901 
	C300.838348,335.008148 299.954834,344.611145 297.295532,346.882874 
	C284.919006,339.569366 272.877289,332.196838 260.975433,324.605042 
	C259.661591,323.767029 258.730377,321.778595 258.324982,320.148804 
	C251.305405,291.928345 244.396149,263.680389 237.440399,235.055893 
z"/>
<path fill="#BACCF4" opacity="1.000000" stroke="none" 
	d="
M230.152893,346.504761 
	C222.583847,346.926544 215.141647,346.808502 207.703430,346.931061 
	C204.316391,346.986847 203.347778,345.648926 202.936722,342.298981 
	C202.045822,335.038574 205.061874,328.792664 207.102951,321.832703 
	C214.250580,325.590118 221.455948,329.651093 228.439178,334.063568 
	C229.586670,334.788635 230.112503,337.017700 230.297882,338.624115 
	C230.580215,341.070587 230.314407,343.580322 230.152893,346.504761 
z"/>
<path fill="#4B62B4" opacity="1.000000" stroke="none" 
	d="
M182.039642,274.853912 
	C177.336060,272.123779 172.632477,269.393677 167.541779,266.438843 
	C172.823334,256.840546 177.452286,247.416199 183.206696,238.738129 
	C184.516464,236.762970 189.720810,237.370255 193.570007,237.281250 
	C190.018143,250.133698 186.028885,262.493805 182.039642,274.853912 
z"/>
<path fill="#B3C5ED" opacity="1.000000" stroke="none" 
	d="
M220.170563,282.080017 
	C222.310074,277.936523 224.292511,274.129272 226.786331,269.339905 
	C230.200287,282.816010 233.348724,295.244019 236.497147,307.672028 
	C236.057083,308.043762 235.617004,308.415497 235.176941,308.787231 
	C227.999268,304.316162 220.821594,299.845123 213.338867,295.184052 
	C215.738998,290.592896 217.876251,286.504608 220.170563,282.080017 
z"/>
<path fill="#768DD4" opacity="1.000000" stroke="none" 
	d="
M182.397064,274.929077 
	C186.028885,262.493805 190.018143,250.133698 194.018158,237.386826 
	C197.152832,236.859955 200.276764,236.719864 203.526566,236.574127 
	C203.608353,237.386246 203.839294,237.920578 203.669083,238.243423 
	C197.475296,249.991150 191.263824,261.729797 184.970276,273.424164 
	C184.584625,274.140808 183.509048,274.486145 182.397064,274.929077 
z"/>
<path fill="#B4C6EE" opacity="1.000000" stroke="none" 
	d="
M271.366119,346.731628 
	C265.356842,346.971252 259.188324,346.946869 252.557434,346.923645 
	C252.095047,343.029877 252.095047,339.134918 252.095047,334.449432 
	C258.780914,338.653748 264.993896,342.560669 271.366119,346.731628 
z"/>
<path fill="#020203" opacity="1.000000" stroke="none" 
	d="
M261.904358,221.242920 
	C255.557343,228.256317 248.207489,229.445023 239.546982,225.842163 
	C230.382187,217.157547 227.907654,201.655884 233.520996,190.383652 
	C236.450470,184.500931 241.637054,182.098114 248.502945,183.442947 
	C263.304138,186.342087 270.504059,200.985291 264.483948,216.040268 
	C263.809814,217.726074 262.826752,219.288315 261.904358,221.242920 
z"/>
</svg>